:SAMPLES-PER-SECOND 30
:FULLY-SPECIFIED
:DEGREES
37
root  34.87963038 36.55865887 -14.56297326 9.445102692 -4.100863457 3.105787516
lowerback  -8.822799683 -0.2581059635 -0.3875364959
upperback  -3.759959936 0.1484249979 -3.181083918
thorax  1.059489965 0.2285670042 -3.054840088
lowerneck  -14.14190006 -5.322889805 -4.371560097
upperneck  14.14319992 -7.314929962 6.752079964
head  7.07159996 -3.085149765 2.148550034
lclavicle  0 -4.497500157e-015 -2.743230041e-014
lhumerus  -48.51779938 31.11730003 62.69900131
lradius  0.01069847494 -6.507048965e-006 29.55139923
lwrist  3.192251654e-007 -3.790274832e-007 -28.56459999
lhand  -4.415548489e-031 -36.89830017 -10.55959988
lfingers  90 7.125020027 -90
lthumb  94.79074775 -25.3976094 101.0566937
rclavicle  0 -4.497500157e-015 -2.743230041e-014
rhumerus  -46.66949844 -27.28149796 -57.53089905
rradius  -5.16745672e-007 2.214343908e-008 67.61990356
rwrist  0.0006954420824 -0.004670973402 -167.1410065
rhand  -1.766862857e-031 -2.198319912 -7.641699791
rfingers  -90 -7.125020027 -90
rthumb  -86.48159599 -8.039988717 -66.26945796
rfemur  -12.11230755 15.60877228 12.93190384
rtibia  -0.4359939694 -0.7063445449 19.54880333
rfoot  0.5277240276 -21.48932838 -36.55241394
rtoes  4.073237573 19.59747599 -101.9865652
lfemur  -7.753881931 -15.77926159 -20.10457611
ltibia  3.113191843 0.1401651204 13.24326229
lfoot  0.3725288212 -24.8441925 35.75253296
ltoes  -8.701386425 -18.07813801 -116.2524466
38
root  34.87322349 36.5600616 -14.55823493 9.519533157 -4.018197536 3.10463953
lowerback  -8.784859657 -0.2930559814 -0.3881705403
upperback  -3.726130009 0.09831929952 -3.178915977
thorax  1.071059942 0.2021649927 -3.060790062
lowerneck  -14.08959961 -5.353710175 -4.431600094
upperneck  14.0656004 -7.348229885 6.780869961
head  7.042819977 -3.105349779 2.165030003
lclavicle  0 -4.497500157e-015 -2.743230041e-014
lhumerus  -48.52939987 31.16550064 62.64979935
lradius  0.01079184189 -6.507048965e-006 29.52529907
lwrist  3.192251654e-007 -3.790274832e-007 -28.62750053
lhand  -4.416926341e-031 -36.92210007 -10.63910007
lfingers  90 7.125020027 -90
lthumb  94.81878769 -25.47488462 101.0893896
rclavicle  0 -4.497500157e-015 -2.743230041e-014
rhumerus  -46.20119858 -26.76919937 -57.81010056
rradius  -5.16745672e-007 2.214343908e-008 69.12270355
rwrist  0.0006954420824 -0.004670973402 -167.4640045
rhand  -1.766974577e-031 -2.290750027 -7.815090179
rfingers  -90 -7.125020027 -90
rthumb  -86.56887696 -7.876216657 -66.36922568
rfemur  -12.20294285 15.56616306 12.9517498
rtibia  -0.4533884823 -0.6800990105 19.60175323
rfoot  0.5048871636 -21.43515015 -36.58611298
rtoes  4.09954899 19.59219555 -102.0650209
lfemur  -7.777332306 -15.76652527 -20.09307861
ltibia  3.170424223 0.1738069504 13.14913177
lfoot  0.3498288393 -24.83278465 35.65120316
ltoes  -8.699288918 -18.07912128 -116.2456874
39
root  34.87932701 36.56270185 -14.55506903 9.456939697 -4.115073681 3.104181767
lowerback  -8.852379799 -0.2719070017 -0.4283070564
upperback  -3.744489908 0.1336359978 -3.176154375
thorax  1.091089964 0.2214999944 -3.026959896
lowerneck  -14.02770042 -5.388539791 -4.463240147
upperneck  14.00259972 -7.387320042 6.769820213
head  7.014750004 -3.130230188 2.163569927
lclavicle  0 -4.497500157e-015 -2.743230041e-014
lhumerus  -48.55559921 31.19179916 62.60810089
lradius  0.01085157879 -6.507048965e-006 29.5114994
lwrist  3.192251654e-007 -3.790274832e-007 -28.66740036
lhand  -0 -36.89720154 -10.62040043
lfingers  90 7.125020027 -90
lthumb  94.80314035 -25.45737287 101.0610251
rclavicle  0 -4.497500157e-015 -2.743230041e-014
rhumerus  -45.80540085 -26.35180092 -57.98160172
rradius  -5.16745672e-007 2.214343908e-008 70.68979645
rwrist  0.0006954420824 -0.004670973402 -167.9179993
rhand  -1.766390027e-031 -1.75387001 -7.743070126
rfingers  -90 -7.125020027 -90
rthumb  -86.44066155 -7.971547448 -65.84251454
rfemur  -12.11366749 15.60985756 12.92684174
rtibia  -0.4326111972 -0.728849113 19.53946304
rfoot  0.5465548635 -21.52752304 -36.50828552
rtoes  4.082719133 19.59557725 -102.0148351
lfemur  -7.688254833 -15.72491837 -20.15036964
ltibia  3.181928396 0.1302266866 13.13585758
lfoot  0.3526429832 -24.76185989 35.69032669
ltoes  -8.696739479 -18.080316 -116.2374724
40
root  34.87702918 36.5624976 -14.54985161 9.488631248 -4.120349407 3.104326248
lowerback  -8.86384964 -0.2770199776 -0.4405913949
upperback  -3.712929964 0.1258639991 -3.172940016
thorax  1.129690051 0.2168000042 -3.017080069
lowerneck  -14.00349998 -5.432929993 -4.49932003
upperneck  13.94449997 -7.43917942 6.7636199
head  6.995930195 -3.160300255 2.16215992
lclavicle  0 -4.497500157e-015 -2.743230041e-014
lhumerus  -48.52719879 31.21649933 62.60609818
lradius  0.01087570842 -6.507048965e-006 29.49550056
lwrist  3.192251654e-007 -3.790274832e-007 -28.73539925
lhand  -0 -36.87879944 -10.63630009
lfingers  90 7.125020027 -90
lthumb  94.79788268 -25.47358286 101.0427593
rclavicle  0 -4.497500157e-015 -2.743230041e-014
rhumerus  -45.31650162 -25.91889954 -58.16529846
rradius  -5.16745672e-007 2.214343908e-008 72.31980133
rwrist  0.0006954420824 -0.004670973402 -168.2449951
rhand  -1.766378794e-031 -1.741930008 -7.881420135
rfingers  -90 -7.125020027 -90
rthumb  -86.49563429 -7.845931832 -65.83871015
rfemur  -12.14130402 15.62347794 12.92233276
rtibia  -0.4327431321 -0.7161020637 19.53697586
rfoot  0.5344249606 -21.49178696 -36.55415726
rtoes  4.060878087 19.59994412 -101.9497186
lfemur  -7.662760258 -15.67488575 -20.16527176
ltibia  3.234992504 0.1728192866 13.0529623
lfoot  0.3779147565 -24.8073616 35.71427917
ltoes  -8.68957451 -18.08367132 -116.2143878
41
root  34.87330159 36.56134418 -14.54441641 9.514302254 -4.102263927 3.104983807
lowerback  -8.861598969 -0.2928109169 -0.4455671906
upperback  -3.69904995 0.1039529964 -3.168179989
thorax  1.141729951 0.2053920031 -3.011430025
lowerneck  -13.96249962 -5.4604702 -4.499690056
upperneck  13.9041996 -7.472759724 6.738959789
head  6.976779938 -3.180850029 2.151449919
lclavicle  0 -4.497500157e-015 -2.743230041e-014
lhumerus  -48.53950119 31.22520065 62.58850098
lradius  0.01086225174 -6.507048965e-006 29.50270081
lwrist  3.192251654e-007 -3.790274832e-007 -28.77470016
lhand  -4.412335987e-031 -36.84270096 -10.63549995
lfingers  90 7.125020027 -90
lthumb  94.78081743 -25.47403652 101.0040854
rclavicle  0 -4.497500157e-015 -2.743230041e-014
rhumerus  -44.81729889 -25.50989723 -58.33119965
rradius  -5.16745672e-007 2.214343908e-008 73.87149811
rwrist  0.0006954420824 -0.004670973402 -168.5
rhand  -1.766249467e-031 -1.598039985 -7.569210052
rfingers  -90 -7.125020027 -90
rthumb  -86.33931579 -8.13857684 -65.68058208
rfemur  -12.13354111 15.5899744 12.91212845
rtibia  -0.4236461222 -0.7356988192 19.48356438
rfoot  0.5537938476 -21.50084877 -36.54810333
rtoes  4.073734759 19.59737654 -101.9880475
lfemur  -7.706119061 -15.68116856 -20.15449524
ltibia  3.232758522 0.1868047714 13.09596539
lfoot  0.4074697196 -24.8609333 35.71999359
ltoes  -8.707871356 -18.07509611 -116.2733463
